<?xml version="1.0" encoding="UTF-8" standalone="no"?>
<!DOCTYPE svg PUBLIC "-//W3C//DTD SVG 1.1//EN" "http://www.w3.org/Graphics/SVG/1.1/DTD/svg11.dtd">
<svg width="100%" height="100%" viewBox="0 0 1080 1080" version="1.1" xmlns="http://www.w3.org/2000/svg" xmlns:xlink="http://www.w3.org/1999/xlink" xml:space="preserve" xmlns:serif="http://www.serif.com/" style="fill-rule:evenodd;clip-rule:evenodd;stroke-linecap:round;stroke-linejoin:round;stroke-miterlimit:1.5;">
    <path d="M1080,111.443C1080,49.936 1030.06,0 968.557,0L111.443,0C49.936,0 0,49.936 0,111.443L0,968.557C0,1030.06 49.936,1080 111.443,1080L968.557,1080C1030.06,1080 1080,1030.06 1080,968.557L1080,111.443Z" style="fill:rgb(162,177,186);"/>
    <g transform="matrix(1.23006,0,0,1.23006,-143.984,-235.353)">
        <circle cx="505.709" cy="560.196" r="324.408" style="fill:none;stroke:black;stroke-width:60.16px;"/>
    </g>
    <g transform="matrix(1,0,0,1,368.757,138.744)">
        <g transform="matrix(700,0,0,700,342.761,532.429)">
        </g>
        <text x="-124.133px" y="532.429px" style="font-family:'ArialMT', 'Arial', sans-serif;font-size:700px;">A</text>
    </g>
    <g transform="matrix(1.38045,0.150388,0.150388,1.38045,-373.201,-464.57)">
        <path d="M725.015,799.164L890.42,964.57" style="fill:none;stroke:black;stroke-width:48.34px;"/>
    </g>
</svg>
